<?xml version="1.0" encoding="UTF-8"?>
<svg version="1.1" xmlns="http://www.w3.org/2000/svg" width="500" height="500">
<path d="M0 0 C1.01545898 0.19867676 2.03091797 0.39735352 3.07714844 0.60205078 C39.58415348 7.9045458 74.32069684 22.32337931 104 45 C104.56203125 45.42071777 105.1240625 45.84143555 105.703125 46.27490234 C115.41352014 53.54949735 124.26645485 61.58912278 133 70 C133.7940625 70.7528125 134.588125 71.505625 135.40625 72.28125 C140.24456554 76.96596822 144.51709501 82.044382 148.68261719 87.33203125 C149.60749076 88.503035 150.53837139 89.6693073 151.47363281 90.83203125 C177.48824019 123.22451804 194.07074466 161.34270712 202 202 C202.24991699 203.24088379 202.24991699 203.24088379 202.50488281 204.50683594 C207.80488028 232.08218506 207.57960557 264.49800884 202 292 C201.70198486 293.52318848 201.70198486 293.52318848 201.39794922 295.07714844 C194.0954542 331.58415348 179.67662069 366.32069684 157 396 C156.57928223 396.56203125 156.15856445 397.1240625 155.72509766 397.703125 C148.45050265 407.41352014 140.41087722 416.26645485 132 425 C130.87078125 426.19109375 130.87078125 426.19109375 129.71875 427.40625 C125.03403178 432.24456554 119.955618 436.51709501 114.66796875 440.68261719 C113.496965 441.60749076 112.3306927 442.53837139 111.16796875 443.47363281 C78.77548196 469.48824019 40.65729288 486.07074466 0 494 C-1.24088379 494.24991699 -1.24088379 494.24991699 -2.50683594 494.50488281 C-30.08218506 499.80488028 -62.49800884 499.57960557 -90 494 C-91.01545898 493.80132324 -92.03091797 493.60264648 -93.07714844 493.39794922 C-129.58415348 486.0954542 -164.32069684 471.67662069 -194 449 C-194.56203125 448.57928223 -195.1240625 448.15856445 -195.703125 447.72509766 C-205.41352014 440.45050265 -214.26645485 432.41087722 -223 424 C-223.7940625 423.2471875 -224.588125 422.494375 -225.40625 421.71875 C-230.24456554 417.03403178 -234.51709501 411.955618 -238.68261719 406.66796875 C-239.60749076 405.496965 -240.53837139 404.3306927 -241.47363281 403.16796875 C-267.48824019 370.77548196 -284.07074466 332.65729288 -292 292 C-292.16661133 291.17274414 -292.33322266 290.34548828 -292.50488281 289.49316406 C-297.80488028 261.91781494 -297.57960557 229.50199116 -292 202 C-291.80132324 200.98454102 -291.60264648 199.96908203 -291.39794922 198.92285156 C-284.0954542 162.41584652 -269.67662069 127.67930316 -247 98 C-246.57928223 97.43796875 -246.15856445 96.8759375 -245.72509766 96.296875 C-238.45050265 86.58647986 -230.41087722 77.73354515 -222 69 C-221.2471875 68.2059375 -220.494375 67.411875 -219.71875 66.59375 C-215.03403178 61.75543446 -209.955618 57.48290499 -204.66796875 53.31738281 C-203.496965 52.39250924 -202.3306927 51.46162861 -201.16796875 50.52636719 C-168.77548196 24.51175981 -130.65729288 7.92925534 -90 0 C-89.17274414 -0.16661133 -88.34548828 -0.33322266 -87.49316406 -0.50488281 C-59.91781494 -5.80488028 -27.50199116 -5.57960557 0 0 Z " fill="#FDFDFD" transform="translate(295,3)"/>
<path d="M0 0 C0.81589096 -0.03032822 1.63178192 -0.06065643 2.47239685 -0.09190369 C3.40088943 -0.13356155 4.32938202 -0.17521942 5.28601074 -0.21813965 C6.28909775 -0.23827621 7.29218475 -0.25841278 8.32566833 -0.27915955 C9.36311691 -0.30433151 10.40056549 -0.32950348 11.4694519 -0.35543823 C13.66913557 -0.39763248 15.86907392 -0.42795451 18.06907654 -0.44737244 C21.41388182 -0.49354937 24.74729158 -0.63029631 28.08934021 -0.76939392 C44.68652003 -1.13952624 44.68652003 -1.13952624 49.41087341 3.25648499 C52.08990397 6.41838948 53.9484989 9.91735932 55.88426208 13.5684967 C57.03019542 15.06075114 58.21386833 16.5256419 59.45066833 17.9434967 C60.20767029 18.86195374 60.20767029 18.86195374 60.97996521 19.79896545 C61.98751202 21.01446134 63.00086514 22.22516045 64.01902771 23.43177795 C69.19547161 29.75177613 69.19547161 29.75177613 68.88426208 33.5684967 C67.22379055 36.36971658 65.1486231 38.74784783 63.00926208 41.1934967 C62.12138 42.24440491 62.12138 42.24440491 61.21556091 43.31654358 C60.01685665 44.73506707 58.81252869 46.14885814 57.6025238 47.55775452 C55.21069668 50.35671561 52.89201379 53.2099466 50.57176208 56.0684967 C49.34288876 57.56873703 48.11385111 59.0688429 46.88426208 60.5684967 C32.34991094 56.80132113 32.34991094 56.80132113 25.88426208 53.5684967 C20.31608297 52.98847805 16.55364452 54.29497981 11.44676208 56.4747467 C8.98877109 57.5238892 6.52737886 58.48640259 4.00926208 59.3809967 C3.31059021 59.63494202 2.61191833 59.88888733 1.89207458 60.15052795 C-0.57244671 60.66357032 -1.79594582 60.56005794 -4.11573792 59.5684967 C-5.86964417 57.7403717 -5.86964417 57.7403717 -7.67823792 55.3184967 C-11.45306085 50.39203288 -15.39468757 45.65686834 -19.43434143 40.94837952 C-25.15264473 34.24847688 -25.15264473 34.24847688 -24.98683167 31.1934967 C-23.91931811 27.97659488 -22.3981445 26.12782662 -20.17823792 23.5684967 C-19.37257385 22.61845764 -18.56690979 21.66841858 -17.73683167 20.68959045 C-17.30999084 20.18669495 -16.88315002 19.68379944 -16.44337463 19.16566467 C-14.12975979 16.38234943 -11.93730268 13.5069745 -9.74073792 10.6309967 C-9.32445129 10.08765686 -8.90816467 9.54431702 -8.47926331 8.98451233 C-6.02393213 5.77835838 -6.02393213 5.77835838 -3.76724243 2.43179321 C-2.11573792 0.5684967 -2.11573792 0.5684967 0 0 Z " fill="#534032" transform="translate(228.11573791503906,125.43150329589844)"/>
<path d="M0 0 C8.96819205 5.35077005 15.69192782 13.05760724 19 23 C20.50919131 29.53982902 20.09038369 36.3216495 20 43 C-1.36708827 44.66841252 -1.36708827 44.66841252 -9 38.75 C-10.68092894 37.1818163 -12.34821046 35.59884757 -14 34 C-17.79594686 30.91184855 -17.79594686 30.91184855 -22.41015625 29.87109375 C-25.55988159 31.24405095 -27.75649699 33.15119307 -30.36938477 35.35644531 C-40.61716928 43.81017193 -49.30008448 44.40631078 -62.25024414 43.19042969 C-62.82766357 43.12758789 -63.40508301 43.06474609 -64 43 C-64.79830708 29.25137811 -61.97013346 18.61281222 -53 8 C-39.24266501 -7.24215749 -17.71215382 -9.60358555 0 0 Z " fill="#554235" transform="translate(271,190)"/>
<path d="M0 0 C2.25390625 2.0625 2.25390625 2.0625 4.5625 5 C4.97798096 5.52529297 5.39346191 6.05058594 5.8215332 6.59179688 C6.73067043 7.74933682 7.63192094 8.9131022 8.52636719 10.08203125 C10.11224181 12.14608543 11.73107797 14.18178147 13.3515625 16.21875 C14.46531165 17.64445241 15.57731553 19.07152006 16.6875 20.5 C17.49973022 21.52287109 17.49973022 21.52287109 18.32836914 22.56640625 C18.82199951 23.21480469 19.31562988 23.86320312 19.82421875 24.53125 C20.49070435 25.39073242 20.49070435 25.39073242 21.1706543 26.26757812 C22 28 22 28 21.75244141 30.06347656 C20.41787339 33.49819217 17.81692075 35.99819965 15.37364197 38.70622253 C12.74586355 41.69564659 10.5755805 44.60990497 8.68310547 48.11743164 C5.63257246 53.48092465 2.53599137 58.81442531 -3.5763855 60.86383057 C-10.88518842 62.09371832 -18.19917607 61.59702557 -25.5625 61.1875 C-27.79475959 61.13288071 -30.02720292 61.08529401 -32.25976562 61.04492188 C-36.32331772 60.93538995 -40.38473943 60.82082088 -44.44360352 60.59448242 C-45.25346207 60.55288498 -46.06332062 60.51128754 -46.89772034 60.46842957 C-49.49818564 59.88899437 -50.44706433 59.15006214 -52 57 C-52.4706806 43.11492238 -43.42861185 29.49329511 -34.46484375 19.5546875 C-27.60100416 12.26986575 -11.19660765 -2.53436727 0 0 Z " fill="#554134" transform="translate(197,95)"/>
<path d="M0 0 C5.75718536 0.23630238 9.87981482 2.12407717 14.75 4.9375 C15.44158203 5.33138916 16.13316406 5.72527832 16.84570312 6.13110352 C23.27619593 9.92667358 29.01442391 14.41235222 34 20 C34 20.66 34 21.32 34 22 C34.66 22 35.32 22 36 22 C41.57906653 28.35192423 45.26336851 35.06773481 48 43 C48.44666016 44.06734375 48.44666016 44.06734375 48.90234375 45.15625 C50.74903909 49.58151071 51.39010093 53.12373839 51 58 C50.505 58.99 50.505 58.99 50 60 C43.28072044 60.46084813 36.56555859 60.77325954 29.83398438 60.98876953 C27.55151289 61.07866359 25.27006005 61.20105431 22.99121094 61.35791016 C4.63561079 62.58858799 4.63561079 62.58858799 -1.35925293 58.32019043 C-5.5265154 54.18048251 -8.58915819 49.46766333 -11.51873779 44.40423584 C-13.62592506 40.98406139 -16.12731546 37.93043748 -18.67446899 34.83035278 C-20 33 -20 33 -20 31 C-20.66 31 -21.32 31 -22 31 C-21.5628926 26.0430161 -18.99732663 23.01379651 -15.9375 19.3125 C-15.44451416 18.70180664 -14.95152832 18.09111328 -14.44360352 17.46191406 C-13.44387719 16.2244509 -12.4405634 14.98987697 -11.43359375 13.75830078 C-9.4094455 11.27568571 -7.42599503 8.76120603 -5.4375 6.25 C-3.68493708 4.0492765 -1.98947218 1.98947218 0 0 Z " fill="#554134" transform="translate(303,95)"/>
<path d="M0 0 C1.25543106 -0.01606293 2.51086212 -0.03212585 3.80433655 -0.04867554 C5.18782881 -0.06016709 6.57132865 -0.07077493 7.95483398 -0.08056641 C8.6500157 -0.08589008 9.34519741 -0.09121376 10.06144524 -0.09669876 C13.74700697 -0.12346436 17.43253457 -0.14282089 21.11816406 -0.15722656 C24.91234553 -0.17380696 28.70564686 -0.21851698 32.49949741 -0.26959801 C35.42590737 -0.30340084 38.3521128 -0.31481856 41.27869987 -0.32045364 C42.67607214 -0.32713942 44.07343224 -0.34229166 45.47061348 -0.36634445 C53.57388477 -0.49778792 59.92208922 -0.44006244 66.13842773 5.19287109 C71.12954776 10.56792343 71.50706636 15.00212747 71.40405273 22.11865234 C70.93801917 27.51230552 69.33512634 31.06094114 65.44252014 34.83877563 C58.432279 40.15951506 51.76843906 39.9774768 43.25952148 39.77880859 C41.83750716 39.76759593 40.41546941 39.75906554 38.99342346 39.75308228 C35.27910582 39.7303454 31.56623152 39.67155994 27.85247803 39.6048584 C24.05150877 39.54310373 20.25030263 39.51599714 16.44897461 39.48583984 C9.01147284 39.42179595 1.57515372 39.31960816 -5.86157227 39.19287109 C-6.24375994 37.53672452 -6.57552328 35.86830085 -6.86157227 34.19287109 C-5.86157227 33.19287109 -5.86157227 33.19287109 -4.01391602 33.09521484 C-1.96313477 33.12776693 0.08764648 33.16031901 2.13842773 33.19287109 C2.13842773 32.20287109 2.13842773 31.21287109 2.13842773 30.19287109 C1.21610352 30.24507812 1.21610352 30.24507812 0.27514648 30.29833984 C-0.5330957 30.32541016 -1.34133789 30.35248047 -2.17407227 30.38037109 C-3.37483398 30.43257812 -3.37483398 30.43257812 -4.59985352 30.48583984 C-6.86157227 30.19287109 -6.86157227 30.19287109 -8.66235352 28.84130859 C-9.86157227 27.19287109 -9.86157227 27.19287109 -9.73657227 24.63037109 C-8.86157227 22.19287109 -8.86157227 22.19287109 -5.86157227 20.19287109 C-3.81860352 19.99755859 -3.81860352 19.99755859 -1.67407227 20.06787109 C-0.41594727 20.10912109 0.84217773 20.15037109 2.13842773 20.19287109 C2.13842773 19.53287109 2.13842773 18.87287109 2.13842773 18.19287109 C1.21610352 18.24507812 1.21610352 18.24507812 0.27514648 18.29833984 C-0.5330957 18.32541016 -1.34133789 18.35248047 -2.17407227 18.38037109 C-3.37483398 18.43257812 -3.37483398 18.43257812 -4.59985352 18.48583984 C-6.86157227 18.19287109 -6.86157227 18.19287109 -8.66625977 16.84521484 C-9.86157227 15.19287109 -9.86157227 15.19287109 -9.67407227 12.56787109 C-8.86157227 10.19287109 -8.86157227 10.19287109 -6.86157227 9.19287109 C-5.3213323 9.12336568 -3.77822239 9.10834752 -2.23657227 9.13037109 C-1.01067383 9.14390625 -1.01067383 9.14390625 0.23999023 9.15771484 C1.1797168 9.17511719 1.1797168 9.17511719 2.13842773 9.19287109 C2.13842773 8.20287109 2.13842773 7.21287109 2.13842773 6.19287109 C-0.50157227 6.19287109 -3.14157227 6.19287109 -5.86157227 6.19287109 C-6.24375994 4.53672452 -6.57552328 2.86830085 -6.86157227 1.19287109 C-5.07384527 -0.5948559 -2.4172772 0.02799127 0 0 Z " fill="#534032" transform="translate(129.861572265625,219.80712890625)"/>
<path d="M0 0 C1.92131241 0.00033989 1.92131241 0.00033989 3.88143921 0.00068665 C5.26422482 0.01600305 6.64700679 0.03165098 8.02978516 0.04760742 C9.456101 0.05320863 10.88242264 0.05747625 12.30874634 0.06047058 C16.04726333 0.07187817 19.78542592 0.10130942 23.52380371 0.13458252 C27.34475919 0.16537209 31.1657724 0.17899483 34.98681641 0.1940918 C42.47265436 0.22618368 49.95820119 0.27732971 57.44384766 0.34057617 C57.82603533 1.99672275 58.15779867 3.66514642 58.44384766 5.34057617 C57.44384766 6.34057617 57.44384766 6.34057617 55.59619141 6.43823242 C53.54541016 6.40568034 51.49462891 6.37312826 49.44384766 6.34057617 C49.44384766 7.33057617 49.44384766 8.32057617 49.44384766 9.34057617 C50.05873047 9.31737305 50.67361328 9.29416992 51.30712891 9.27026367 C52.11537109 9.2522168 52.92361328 9.23416992 53.75634766 9.21557617 C54.55685547 9.19237305 55.35736328 9.16916992 56.18212891 9.14526367 C58.44384766 9.34057617 58.44384766 9.34057617 61.44384766 11.34057617 C61.81884766 13.84057617 61.81884766 13.84057617 61.44384766 16.34057617 C58.24004748 18.47644295 57.42444799 18.57189792 53.75634766 18.46557617 C52.94810547 18.4475293 52.13986328 18.42948242 51.30712891 18.41088867 C50.69224609 18.38768555 50.07736328 18.36448242 49.44384766 18.34057617 C49.44384766 19.33057617 49.44384766 20.32057617 49.44384766 21.34057617 C50.49185547 21.30577148 50.49185547 21.30577148 51.56103516 21.27026367 C52.92615234 21.24319336 52.92615234 21.24319336 54.31884766 21.21557617 C55.67623047 21.18077148 55.67623047 21.18077148 57.06103516 21.14526367 C59.44384766 21.34057617 59.44384766 21.34057617 61.44384766 23.34057617 C61.75634766 25.84057617 61.75634766 25.84057617 61.44384766 28.34057617 C58.24004748 30.47644295 57.42444799 30.57189792 53.75634766 30.46557617 C52.94810547 30.4475293 52.13986328 30.42948242 51.30712891 30.41088867 C50.69224609 30.38768555 50.07736328 30.36448242 49.44384766 30.34057617 C49.44384766 31.33057617 49.44384766 32.32057617 49.44384766 33.34057617 C52.08384766 33.34057617 54.72384766 33.34057617 57.44384766 33.34057617 C58.56884766 37.09057617 58.56884766 37.09057617 57.44384766 39.34057617 C49.33332523 39.41020862 41.22292854 39.46345432 33.11218071 39.49601269 C29.34567552 39.51164223 25.57937544 39.53283041 21.81298828 39.56689453 C18.17549764 39.59958552 14.5382038 39.61744957 10.90057755 39.6252079 C9.51554391 39.63073402 8.13052057 39.64152523 6.74557114 39.65776634 C4.79988944 39.67966745 2.85400805 39.68080266 0.90820312 39.68115234 C-0.19766144 39.68781418 -1.303526 39.69447601 -2.44290161 39.70133972 C-8.26987131 39.02611037 -12.4074841 36.09206084 -16.36474609 31.96948242 C-18.12771921 29.55912245 -18.41649549 27.2733702 -18.55615234 24.34057617 C-19.21615234 24.34057617 -19.87615234 24.34057617 -20.55615234 24.34057617 C-20.94613111 16.93097955 -19.64013178 12.26941214 -15.24365234 6.09057617 C-10.64280627 1.38273368 -6.51412323 -0.03862128 0 0 Z " fill="#544134" transform="translate(317.55615234375,220.659423828125)"/>
<path d="M0 0 C0.97498947 -0.03197479 1.94997894 -0.06394958 2.95451355 -0.09689331 C4.00762222 -0.10761871 5.0607309 -0.11834412 6.14575195 -0.12939453 C7.77562798 -0.15647995 7.77562798 -0.15647995 9.43843079 -0.18411255 C11.7407426 -0.21314902 14.04322005 -0.23089892 16.34570312 -0.23828125 C19.85548856 -0.26201402 23.35816298 -0.36025115 26.86645508 -0.46142578 C43.16357974 -0.70098285 43.16357974 -0.70098285 48.3359375 2.64160156 C50.37343338 5.20303888 51.76535236 7.67823921 53.1965332 10.61279297 C54.27535179 11.94976476 55.39756602 13.25333519 56.56762695 14.51123047 C57.07874023 15.09259766 57.58985352 15.67396484 58.11645508 16.27294922 C59.15182015 17.44289843 60.19105752 18.60942939 61.23364258 19.77294922 C63.77951047 22.68157877 65.46580234 24.8138141 66.1965332 28.61279297 C63.92371405 29.52192063 61.65059335 30.43021025 59.3762207 31.33544922 C57.10560456 32.24760091 54.8405465 33.17363844 52.5793457 34.10888672 C46.0232207 36.80672751 39.55378463 39.17350621 32.6652832 40.90576172 C29.48599781 41.81628491 26.62671753 43.17078853 23.6418457 44.57763672 C19.65349518 46.26599596 15.4947183 47.3774307 11.3449707 48.60107422 C7.86060477 49.7207402 4.65037066 51.12511442 1.3918457 52.78076172 C-1.60975101 53.91837755 -4.63120294 54.19017759 -7.8034668 54.61279297 C-7.87949491 47.56533717 -7.93205741 40.51798703 -7.96826172 33.47021484 C-7.98335362 31.07238818 -8.0038293 28.67458914 -8.02978516 26.27685547 C-8.06614991 22.83147364 -8.08318928 19.3864566 -8.09643555 15.94091797 C-8.1119194 14.86787415 -8.12740326 13.79483032 -8.14335632 12.68927002 C-8.14358292 11.68853455 -8.14380951 10.68779907 -8.14404297 9.65673828 C-8.1507048 8.7773761 -8.15736664 7.89801392 -8.16423035 6.99200439 C-7.38343843 1.84273408 -5.03479627 0.12494964 0 0 Z " fill="#533F32" transform="translate(151.803466796875,160.38720703125)"/>
<path d="M0 0 C2.34166303 0.05314229 4.68347569 0.10007519 7.02539062 0.140625 C11.28384679 0.24089296 15.54005461 0.35227345 19.79516602 0.55078125 C20.64579117 0.58856689 21.49641632 0.62635254 22.37281799 0.6652832 C24.4375 1 24.4375 1 26.4375 3 C26.67800903 5.21463013 26.67800903 5.21463013 26.66455078 8.00048828 C26.66439972 9.04141632 26.66424866 10.08234436 26.66409302 11.15481567 C26.65377045 12.28192963 26.64344788 13.40904358 26.6328125 14.5703125 C26.6299826 15.72167694 26.62715271 16.87304138 26.62423706 18.05929565 C26.61301408 21.74796812 26.58790556 25.43640053 26.5625 29.125 C26.55247294 31.62109025 26.54334662 34.1171843 26.53515625 36.61328125 C26.51306784 42.74226984 26.47956947 48.87111777 26.4375 55 C25.01215346 54.70162358 23.58787782 54.39812899 22.1640625 54.0925293 C21.37080566 53.92408005 20.57754883 53.7556308 19.76025391 53.58207703 C16.4798888 52.76002474 13.5158039 51.38594933 10.4375 50 C8.1123899 49.20470666 5.77857609 48.43448809 3.4375 47.6875 C-1.78594557 45.99537958 -6.86153268 44.10506534 -11.9375 42 C-18.03126064 39.47724916 -24.1957351 37.55258293 -30.5402832 35.76489258 C-36.04100605 34.20156963 -41.32345474 32.30415013 -46.5625 30 C-45.80546881 25.0219464 -42.47967533 22.02444493 -39.25170898 18.359375 C-37.37500455 16.13423401 -35.91903675 13.94261254 -34.55444336 11.37451172 C-26.57752916 -2.60595995 -14.58217056 -0.69560687 0 0 Z " fill="#534032" transform="translate(328.5625,160)"/>
<path d="M0 0 C30.03 0 60.06 0 91 0 C89.01428226 3.97143548 86.62848721 7.18690258 83.875 10.625 C83.20210937 11.47384766 83.20210937 11.47384766 82.515625 12.33984375 C81.55209119 13.55368103 80.56648945 14.75021627 79.56347656 15.93164062 C77.89345424 18.00300274 77.89345424 18.00300274 76.70996094 20.64648438 C74.77079876 24.07891168 73.31513974 25.80641044 70 28 C63.12323262 29.69978527 55.93605289 29.43627691 48.90087891 29.30371094 C45.50620209 29.25009795 42.12473754 29.30322824 38.73046875 29.3671875 C23.10695753 29.41678939 23.10695753 29.41678939 17.83911133 25.87451172 C15.79953881 23.33411216 14.38826752 20.93691662 13 18 C12.19949219 17.00226563 11.39898437 16.00453125 10.57421875 14.9765625 C9.95160156 14.20054688 9.32898438 13.42453125 8.6875 12.625 C8.05199219 11.83351563 7.41648438 11.04203125 6.76171875 10.2265625 C5.88966797 9.12441406 5.88966797 9.12441406 5 8 C4.42894531 7.28585938 3.85789063 6.57171875 3.26953125 5.8359375 C2 4 2 4 2 2 C1.34 2 0.68 2 0 2 C0 1.34 0 0.68 0 0 Z " fill="#533F31" transform="translate(204,92)"/>
<path d="M0 0 C3.37425065 3.05289345 5.29998782 5.92060366 5.91036987 10.5300293 C6.03746508 13.0767702 6.06699715 15.60634313 6.05859375 18.15625 C6.0638356 19.08796021 6.06907745 20.01967041 6.07447815 20.97961426 C6.08088102 22.94294237 6.0795839 24.90630893 6.07104492 26.86962891 C6.06252671 29.86560568 6.0913337 32.85967964 6.12304688 35.85546875 C6.12465893 37.7682286 6.12408127 39.68099181 6.12109375 41.59375 C6.13794472 42.92992371 6.13794472 42.92992371 6.15513611 44.29309082 C6.07907989 51.11210478 4.01863146 54.53256264 -0.375 59.75 C-5.24904663 62.39010859 -9.98104875 62.43427725 -15.375 61.375 C-19.67679139 58.87117096 -22.78718961 56.13843118 -24.375 51.375 C-24.48544882 49.919027 -24.54363388 48.45873439 -24.56787109 46.9987793 C-24.58393402 46.1174382 -24.59999695 45.23609711 -24.61654663 44.32804871 C-24.66113749 40.302774 -24.70205408 36.2776613 -24.72509766 32.25219727 C-24.74165816 30.13099192 -24.76894929 28.00984239 -24.80712891 25.88891602 C-24.86196671 22.82539011 -24.88378158 19.76316971 -24.8984375 16.69921875 C-24.92110687 15.75527756 -24.94377625 14.81133636 -24.96713257 13.83879089 C-24.95306905 9.44314557 -24.83885862 6.3406896 -22.04541016 2.81567383 C-16.13764939 -2.58384019 -7.10853705 -3.42262895 0 0 Z " fill="#564538" transform="translate(219.375,324.625)"/>
<path d="M0 0 C17 0 17 0 24 3 C28.19983592 7.53140192 29.16695369 10.20167552 29.25 16.3125 C29.27578125 17.44300781 29.3015625 18.57351563 29.328125 19.73828125 C28.96991471 23.29906208 27.95638416 25.06282909 26 28 C26.21231376 30.33545133 26.8190603 31.70366857 28.03515625 33.6953125 C30.48397762 39.54472387 29.71511274 47.99357859 28.3125 54.125 C26.73970086 57.57017906 25.20495571 59.0159798 22 61 C14.87827589 62.78043103 7.34090518 62 0 62 C0 41.54 0 21.08 0 0 Z " fill="#564438" transform="translate(277,323)"/>
<path d="M0 0 C2.12883388 0.75872198 3.64472623 1.65269288 5.4675293 2.98046875 C6.08176758 3.42390625 6.69600586 3.86734375 7.32885742 4.32421875 C7.95856445 4.78828125 8.58827148 5.25234375 9.23706055 5.73046875 C9.87836914 6.19453125 10.51967773 6.65859375 11.18041992 7.13671875 C15.84372078 10.52462898 15.84372078 10.52462898 17.04956055 11.73046875 C18.75519833 11.8878748 20.46683299 11.98140267 22.1784668 12.046875 C23.73017578 12.1097168 23.73017578 12.1097168 25.31323242 12.17382812 C26.4018457 12.21314453 27.49045898 12.25246094 28.61206055 12.29296875 C29.70454102 12.33615234 30.79702148 12.37933594 31.92260742 12.42382812 C34.63145618 12.53028943 37.34040047 12.63230391 40.04956055 12.73046875 C38.31967795 19.69942436 35.72955004 26.09425296 30.04956055 30.73046875 C25.51299059 32.03048367 21.1460245 31.94689739 16.4519043 31.85546875 C15.14427628 31.85933594 13.83664825 31.86320312 12.48939514 31.8671875 C9.73066047 31.87141494 6.97457208 31.84436759 4.21630859 31.79394531 C0.69235807 31.73139781 -2.82702806 31.74025627 -6.35125065 31.771698 C-9.72982475 31.7935006 -13.10707325 31.76004907 -16.4855957 31.73046875 C-17.74509537 31.73836426 -19.00459503 31.74625977 -20.30226135 31.75439453 C-28.82784053 31.5480168 -28.82784053 31.5480168 -32.05712891 29.19624329 C-33.58928653 27.44128192 -34.79313596 25.74734861 -35.95043945 23.73046875 C-36.50473633 22.87839844 -37.0590332 22.02632812 -37.63012695 21.1484375 C-38.22180664 20.04435547 -38.22180664 20.04435547 -38.82543945 18.91796875 C-39.23536133 18.16902344 -39.6452832 17.42007813 -40.06762695 16.6484375 C-40.95043945 14.73046875 -40.95043945 14.73046875 -40.95043945 12.73046875 C-40.30606934 12.74207031 -39.66169922 12.75367188 -38.99780273 12.765625 C-24.56319176 13.50080798 -24.56319176 13.50080798 -11.88793945 7.91796875 C-10.54423128 6.55215204 -9.22695729 5.15928265 -7.95043945 3.73046875 C-2.91684518 -0.40307887 -2.91684518 -0.40307887 0 0 Z " fill="#544134" transform="translate(249.950439453125,226.26953125)"/>
<path d="M0 0 C2.97 0 5.94 0 9 0 C12.27553325 5.82317022 14.28681279 11.71964645 16.16088867 18.09960938 C16.35658447 18.75896484 16.55228027 19.41832031 16.75390625 20.09765625 C16.92220947 20.68039307 17.0905127 21.26312988 17.26391602 21.86352539 C18.335695 24.97435058 19.70389515 27.97575534 21 31 C21.33 20.77 21.66 10.54 22 0 C25.3 0 28.6 0 32 0 C32 20.79 32 41.58 32 63 C29.03 63 26.06 63 23 63 C20 55.375 20 55.375 20 52 C19.34 52 18.68 52 18 52 C16.82627027 48.39809458 15.66223744 44.79312849 14.5 41.1875 C14.16613281 40.16333984 13.83226562 39.13917969 13.48828125 38.08398438 C13.01455078 36.60961914 13.01455078 36.60961914 12.53125 35.10546875 C12.23798828 34.19949951 11.94472656 33.29353027 11.64257812 32.36010742 C11 30 11 30 11 27 C10.34 27 9.68 27 9 27 C9 38.55 9 50.1 9 62 C6.03 62 3.06 62 0 62 C0 41.54 0 21.08 0 0 Z " fill="#5A483C" transform="translate(360,323)"/>
<path d="M0 0 C2.97 0 5.94 0 9 0 C9.20157715 0.96824707 9.4031543 1.93649414 9.61083984 2.93408203 C10.36392029 6.54665572 11.12169986 10.15823059 11.88085938 13.76953125 C12.20797708 15.32883539 12.53384173 16.88840298 12.85839844 18.44824219 C13.32673482 20.69798075 13.79965832 22.94671467 14.2734375 25.1953125 C14.41623138 25.8861795 14.55902527 26.57704651 14.70614624 27.28884888 C15.55734834 31.30323334 16.67725012 35.11930508 18 39 C18.38741953 40.59965748 18.74573193 42.20673096 19.0703125 43.8203125 C19.24433594 44.68527344 19.41835937 45.55023438 19.59765625 46.44140625 C19.77167969 47.32699219 19.94570312 48.21257812 20.125 49.125 C20.30675781 50.01832031 20.48851562 50.91164063 20.67578125 51.83203125 C20.84722656 52.69441406 21.01867187 53.55679688 21.1953125 54.4453125 C21.35016113 55.22406738 21.50500977 56.00282227 21.66455078 56.80517578 C22 59 22 59 22 63 C19.03 63 16.06 63 13 63 C12.01 58.71 11.02 54.42 10 50 C6.04 49.67 2.08 49.34 -2 49 C-2.66 53.62 -3.32 58.24 -4 63 C-6.97 63 -9.94 63 -13 63 C-11.99789078 51.57595486 -9.43760295 40.51098411 -6.55810547 29.43481445 C-4.82906424 22.62681783 -3.55668709 15.73940958 -2.30688477 8.82958984 C-2.15018311 7.97059082 -1.99348145 7.1115918 -1.83203125 6.2265625 C-1.69514893 5.45908691 -1.5582666 4.69161133 -1.41723633 3.90087891 C-1 2 -1 2 0 0 Z " fill="#5A483D" transform="translate(155,323)"/>
<path d="M0 0 C19.47 0 38.94 0 59 0 C59 0.66 59 1.32 59 2 C58.34 2 57.68 2 57 2 C56.76925781 2.56976563 56.53851563 3.13953125 56.30078125 3.7265625 C54.67078906 6.57537768 52.67972457 8.24521289 50.1875 10.375 C47.28523065 12.91396369 44.53128908 15.35770962 42.125 18.375 C40.07198793 20.91107373 38.81492224 22.40082203 36 24 C33.16657345 24.25673097 30.5616281 24.35005816 27.734375 24.29296875 C26.94097717 24.28872391 26.14757935 24.28447906 25.33013916 24.28010559 C22.8030768 24.2633504 20.27682017 24.22570506 17.75 24.1875 C16.03386571 24.17244903 14.31771888 24.15876134 12.6015625 24.14648438 C8.40048364 24.11601233 4.20114067 24.05728828 0 24 C0 16.08 0 8.16 0 0 Z " fill="#513E30" transform="translate(253,263)"/>
<path d="M0 0 C19.14 0 38.28 0 58 0 C58 7.92 58 15.84 58 24 C25.76805748 27.51040958 25.76805748 27.51040958 16.37625122 20.57345581 C10.11047043 15.2999761 4.43219958 8.8754384 0 2 C0 1.34 0 0.68 0 0 Z " fill="#554235" transform="translate(189,263)"/>
<path d="M0 0 C30.75453868 -3.94153753 30.75453868 -3.94153753 40.72224426 3.61042786 C47.28357524 9.22907193 53.05502022 15.92898152 58 23 C58 23.33 58 23.66 58 24 C53.75013521 24.08842548 49.50051254 24.14086428 45.25 24.1875 C44.06277344 24.21263672 42.87554687 24.23777344 41.65234375 24.26367188 C30.94315976 24.35145207 20.76863013 23.77984599 12.80859375 15.96875 C10.33971014 13.28123955 7.89903203 10.58034796 5.54296875 7.79296875 C3.91239016 5.84520362 3.91239016 5.84520362 1.5625 3.625 C0 2 0 2 0 0 Z " fill="#534135" transform="translate(145,263)"/>
<path d="M0 0 C2.62462244 -0.26697888 5.01065933 -0.34832984 7.6328125 -0.29296875 C8.76056595 -0.28660149 8.76056595 -0.28660149 9.91110229 -0.28010559 C12.31609685 -0.2632917 14.72025809 -0.22563624 17.125 -0.1875 C18.75389416 -0.17245659 20.38280144 -0.15876758 22.01171875 -0.14648438 C26.00813434 -0.11337954 30.00392582 -0.06158009 34 0 C31.38217949 5.52975355 27.13616072 9.55290412 23 14 C22.154375 14.94875 21.30875 15.8975 20.4375 16.875 C14.10339982 22.39703606 7.52370366 24.13387589 -0.734375 24.09765625 C-2.02988281 24.09443359 -3.32539063 24.09121094 -4.66015625 24.08789062 C-6.02343817 24.07953598 -7.38671942 24.07107104 -8.75 24.0625 C-10.12890465 24.05748168 -11.50781104 24.05291935 -12.88671875 24.04882812 C-16.25785659 24.03704093 -19.62890628 24.02058635 -23 24 C-21.625 22 -21.625 22 -20 20 C-19.34 20 -18.68 20 -18 20 C-17.773125 19.4225 -17.54625 18.845 -17.3125 18.25 C-15.66216522 15.42085466 -13.56741423 14.01725404 -11 12 C-10.34 11.175 -9.68 10.35 -9 9.5 C-6.90258073 6.87822591 -4.62562945 5.07286535 -2 3 C-1.34 2.01 -0.68 1.02 0 0 Z " fill="#544134" transform="translate(320,263)"/>
<path d="M0 0 C9.9 0 19.8 0 30 0 C30 2.97 30 5.94 30 9 C26.37 9 22.74 9 19 9 C19 26.49 19 43.98 19 62 C16.03 62 13.06 62 10 62 C10 44.51 10 27.02 10 9 C6.7 9 3.4 9 0 9 C0 6.03 0 3.06 0 0 Z " fill="#564338" transform="translate(103,323)"/>
<path d="M0 0 C2.97 0 5.94 0 9 0 C9 20.46 9 40.92 9 62 C6.03 62 3.06 62 0 62 C0 41.54 0 21.08 0 0 Z " fill="#554237" transform="translate(329,323)"/>
<path d="M0 0 C1.66323853 1.28137207 1.66323853 1.28137207 3 3 C3.29841479 5.97739136 3.42027068 8.74118211 3.3984375 11.71875 C3.40274277 13.00017883 3.40274277 13.00017883 3.40713501 14.30749512 C3.40917581 16.11304385 3.40364483 17.91861469 3.39111328 19.72412109 C3.37505944 22.48976012 3.39096099 25.25393775 3.41015625 28.01953125 C3.40817382 29.77344073 3.40433015 31.5273493 3.3984375 33.28125 C3.40754654 34.52352356 3.40754654 34.52352356 3.4168396 35.79089355 C3.34613251 41.55498942 3.34613251 41.55498942 1.66323853 43.71862793 C-0.90128546 45.69435742 -2.86829726 45.39146284 -6 45 C-7.66323853 43.71862793 -7.66323853 43.71862793 -9 42 C-9.29841479 39.02260864 -9.42027068 36.25881789 -9.3984375 33.28125 C-9.40274277 31.99982117 -9.40274277 31.99982117 -9.40713501 30.69250488 C-9.40917581 28.88695615 -9.40364483 27.08138531 -9.39111328 25.27587891 C-9.37505944 22.51023988 -9.39096099 19.74606225 -9.41015625 16.98046875 C-9.40817382 15.22655927 -9.40433015 13.4726507 -9.3984375 11.71875 C-9.40451019 10.89056763 -9.41058289 10.06238525 -9.4168396 9.20910645 C-9.34613251 3.44501058 -9.34613251 3.44501058 -7.66323853 1.28137207 C-5.09871454 -0.69435742 -3.13170274 -0.39146284 0 0 Z " fill="#F6F4F3" transform="translate(213,332)"/>
<path d="M0 0 C2.52775351 3.79163027 2.22443035 6.80874031 2.125 11.1875 C2.11597656 11.93708984 2.10695313 12.68667969 2.09765625 13.45898438 C2.07412578 15.30612654 2.03825561 17.15310412 2 19 C1.34 19 0.68 19 0 19 C0 20.65 0 22.3 0 24 C-21.88903082 25.8233846 -21.88903082 25.8233846 -29.12036133 20.52099609 C-31.53798882 18.44998576 -33.77451493 16.27776156 -36 14 C-38.75047381 11.70792787 -38.75047381 11.70792787 -41.5 12.25 C-44.21362946 12.93137292 -44.21362946 12.93137292 -47 15 C-48.32 13.35 -49.64 11.7 -51 10 C-49.59447701 8.96387729 -48.17508306 7.94655075 -46.75 6.9375 C-45.96109375 6.36902344 -45.1721875 5.80054688 -44.359375 5.21484375 C-42 4 -42 4 -39.96875 4.1484375 C-37.70326197 5.12835097 -35.78732245 6.29142113 -33.75 7.6875 C-33.04359375 8.16574219 -32.3371875 8.64398438 -31.609375 9.13671875 C-29 11 -29 11 -27.32421875 12.51464844 C-21.61426328 17.43025178 -16.88339168 17.89437898 -9.5 17.875 C-8.48679687 17.895625 -7.47359375 17.91625 -6.4296875 17.9375 C-3.9534781 17.98422093 -1.47664644 17.99572992 1 18 C0.505 9.09 0.505 9.09 0 0 Z " fill="#E9E5E1" transform="translate(290,215)"/>
<path d="M0 0 C12.48119315 -0.37072851 12.48119315 -0.37072851 14.90234375 1.359375 C16.45271104 3.67664996 16.26730462 5.26012761 16 8 C15.66666667 9.33333333 15.33333333 10.66666667 15 12 C15.33 12.33 15.66 12.66 16 13 C16.3125 16.375 16.3125 16.375 16 20 C13.68799977 22.43397626 12.34492237 22.9664907 8.984375 23.29296875 C7.91703125 23.25816406 6.8496875 23.22335937 5.75 23.1875 C2.90375 23.0946875 2.90375 23.0946875 0 23 C0 15.41 0 7.82 0 0 Z " fill="#61544A" transform="translate(166,413)"/>
<path d="M0 0 C12.4 0 12.4 0 16 3 C17 4 17 4 17.25 7.4375 C17.1675 8.613125 17.085 9.78875 17 11 C16.01 11.66 15.02 12.32 14 13 C14.47501758 15.21674869 15.0198699 17.03857099 16.0625 19.0625 C17 21 17 21 17 24 C15.68 24 14.36 24 13 24 C12.68546875 23.36191406 12.3709375 22.72382813 12.046875 22.06640625 C11.61890625 21.24011719 11.1909375 20.41382813 10.75 19.5625 C10.33234375 18.73878906 9.9146875 17.91507812 9.484375 17.06640625 C8.01047374 14.54473322 8.01047374 14.54473322 4 14 C4 17.3 4 20.6 4 24 C2.68 24 1.36 24 0 24 C0 16.08 0 8.16 0 0 Z " fill="#6A5B52" transform="translate(251,412)"/>
<path d="M0 0 C5.28 0 10.56 0 16 0 C15.67 1.65 15.34 3.3 15 5 C11.7 5 8.4 5 5 5 C5 6.65 5 8.3 5 10 C7.97 10 10.94 10 14 10 C14 11.32 14 12.64 14 14 C10.7 14 7.4 14 4 14 C4 15.98 4 17.96 4 20 C7.96 20 11.92 20 16 20 C16 21.32 16 22.64 16 24 C10.72 24 5.44 24 0 24 C0 16.08 0 8.16 0 0 Z " fill="#867972" transform="translate(230,412)"/>
<path d="M0 0 C0.495 1.485 0.495 1.485 1 3 C-0.78478322 6.10684487 -2.61589071 8.62686526 -5.1875 11.125 C-7.16496968 13.17065829 -7.44244962 14.28546177 -8 17 C-8.97839844 16.49339844 -8.97839844 16.49339844 -9.9765625 15.9765625 C-10.85054688 15.53054687 -11.72453125 15.08453125 -12.625 14.625 C-13.48351562 14.18414062 -14.34203125 13.74328125 -15.2265625 13.2890625 C-21.57936929 10.33634948 -26.71433577 9.71149798 -33.625 9.8125 C-34.470625 9.81314453 -35.31625 9.81378906 -36.1875 9.81445312 C-39.97942615 9.84136743 -43.33250353 9.96168732 -47 11 C-46.67 10.01 -46.34 9.02 -46 8 C-47.98 8.33 -49.96 8.66 -52 9 C-48.78538134 6.8569209 -46.07198097 6.01544456 -42.375 4.9375 C-38.38194837 4.04515337 -38.38194837 4.04515337 -35 2 C-29.59342809 1.57595514 -26.74220718 2.57646414 -22 5 C-19.78843831 5.80042421 -17.55817982 6.55099629 -15.3125 7.25 C-14.19488281 7.60578125 -13.07726562 7.9615625 -11.92578125 8.328125 C-8.96097145 9.27617618 -8.96097145 9.27617618 -6 8 C-4.33410763 6.14188287 -4.33410763 6.14188287 -2.8125 3.9375 C-2.28269531 3.20402344 -1.75289063 2.47054687 -1.20703125 1.71484375 C-0.80871094 1.14894531 -0.41039062 0.58304688 0 0 Z " fill="#ECE8E2" transform="translate(282,176)"/>
<path d="M0 0 C1.32 0 2.64 0 4 0 C4.32613281 1.01320313 4.65226562 2.02640625 4.98828125 3.0703125 C5.42944236 4.42195504 5.87086242 5.77351307 6.3125 7.125 C6.52583984 7.79015625 6.73917969 8.4553125 6.95898438 9.140625 C8.01578694 12.35835222 9.13507818 15.26762561 10.66796875 18.3046875 C12 21 12 21 12 24 C10.35 23.67 8.7 23.34 7 23 C6.67 22.01 6.34 21.02 6 20 C3.03 19.67 0.06 19.34 -3 19 C-3.33 20.65 -3.66 22.3 -4 24 C-5.32 24 -6.64 24 -8 24 C-7.58273584 18.99283006 -6.42301896 15.54102069 -4.0546875 11.1328125 C-2.29155835 7.56737355 -1.16005962 3.79655876 0 0 Z " fill="#534037" transform="translate(280,412)"/>
<path d="M0 0 C2.12890625 0.39453125 2.12890625 0.39453125 4.69140625 2.20703125 C6.12890625 4.39453125 6.12890625 4.39453125 6.12890625 7.39453125 C4.80890625 7.39453125 3.48890625 7.39453125 2.12890625 7.39453125 C1.46890625 6.40453125 0.80890625 5.41453125 0.12890625 4.39453125 C-2.43392117 3.66487759 -2.43392117 3.66487759 -4.87109375 3.39453125 C-5.90985758 6.51082274 -6.00471 8.75397415 -5.99609375 12.01953125 C-5.99867188 13.00179688 -6.00125 13.9840625 -6.00390625 14.99609375 C-6.1411534 17.34678136 -6.1411534 17.34678136 -4.87109375 18.39453125 C-3.2049226 18.43516957 -1.5372128 18.43725225 0.12890625 18.39453125 C0.78890625 17.07453125 1.44890625 15.75453125 2.12890625 14.39453125 C0.80890625 14.06453125 -0.51109375 13.73453125 -1.87109375 13.39453125 C-1.87109375 12.40453125 -1.87109375 11.41453125 -1.87109375 10.39453125 C0.76890625 10.39453125 3.40890625 10.39453125 6.12890625 10.39453125 C6.73247278 17.5166163 6.73247278 17.5166163 4.06640625 21.39453125 C0.35083399 23.92428258 -1.45934205 24.18234405 -5.87109375 23.39453125 C-8.80859375 21.76953125 -8.80859375 21.76953125 -10.87109375 18.39453125 C-12.46208691 6.57373123 -12.46208691 6.57373123 -9.1171875 1.9921875 C-5.93817646 -0.26905687 -3.79045486 -0.16860343 0 0 Z " fill="#5B4B41" transform="translate(305.87109375,412.60546875)"/>
<path d="M0 0 C4.95 0 9.9 0 15 0 C15 0.99 15 1.98 15 3 C11.37 3 7.74 3 4 3 C4 4.98 4 6.96 4 9 C7.3 9 10.6 9 14 9 C14 10.32 14 11.64 14 13 C10.7 13 7.4 13 4 13 C4 14.98 4 16.96 4 19 C7.63 19 11.26 19 15 19 C15 20.32 15 21.64 15 23 C10.05 23 5.1 23 0 23 C0 15.41 0 7.82 0 0 Z " fill="#66574E" transform="translate(319,413)"/>
<path d="M0 0 C4.95 0 9.9 0 15 0 C15 0.99 15 1.98 15 3 C11.37 3 7.74 3 4 3 C4 5.31 4 7.62 4 10 C7.3 10 10.6 10 14 10 C14 10.99 14 11.98 14 13 C11.03 13 8.06 13 5 13 C5 14.98 5 16.96 5 19 C8.63 19 12.26 19 16 19 C16 20.32 16 21.64 16 23 C10.72 23 5.44 23 0 23 C0 15.41 0 7.82 0 0 Z " fill="#534135" transform="translate(188,413)"/>
<path d="M0 0 C8 0 8 0 11 2 C11.43359375 5.1171875 11.43359375 5.1171875 11.4375 8.875 C11.45683594 10.10992187 11.47617187 11.34484375 11.49609375 12.6171875 C11 16 11 16 9.41015625 18.4453125 C7 20 7 20 0 20 C0 13.4 0 6.8 0 0 Z " fill="#F2EEEC" transform="translate(286,357)"/>
<path d="M0 0 C8 0 8 0 9.97265625 1.19140625 C12.05431816 4.85608101 11.58453591 8.94146092 11 13 C9.4375 15.625 9.4375 15.625 7 17 C4.69 17 2.38 17 0 17 C0 11.39 0 5.78 0 0 Z " fill="#F2EFED" transform="translate(286,332)"/>
<path d="M0 0 C2.475 0.495 2.475 0.495 5 1 C6.32 5.95 7.64 10.9 9 16 C10.65 11.05 12.3 6.1 14 1 C15.32 1 16.64 1 18 1 C16.34150967 9.01603659 14.33032995 16.51098392 11 24 C9.09375 23.70703125 9.09375 23.70703125 7 23 C5.78200296 20.31025654 4.87828206 17.80358016 4 15 C3.64550781 13.9790625 3.29101562 12.958125 2.92578125 11.90625 C0 3.44714912 0 3.44714912 0 0 Z " fill="#645449" transform="translate(207,412)"/>
<path d="M0 0 C5.66129431 4.69766975 10.85228904 9.74723372 16 15 C15.67 15.66 15.34 16.32 15 17 C14.34 17 13.68 17 13 17 C13.495 19.475 13.495 19.475 14 22 C9.67669221 22.0496011 5.35353715 22.0858144 1.0300293 22.10986328 C-0.43940112 22.11989352 -1.90881171 22.13352101 -3.37817383 22.15087891 C-5.49565537 22.17525898 -7.61287199 22.18651286 -9.73046875 22.1953125 C-11.00301514 22.20578613 -12.27556152 22.21625977 -13.58666992 22.22705078 C-16.85835171 22.00942228 -19.06957366 21.41502625 -22 20 C-19.12863532 18.56431766 -17.13393745 19.45457029 -14 20 C-11.91003127 20.07733849 -9.81793605 20.10800958 -7.7265625 20.09765625 C-6.57285156 20.09443359 -5.41914063 20.09121094 -4.23046875 20.08789062 C-2.44576172 20.07532227 -2.44576172 20.07532227 -0.625 20.0625 C0.58800781 20.05798828 1.80101562 20.05347656 3.05078125 20.04882812 C6.03387545 20.03708366 9.01694414 20.01914943 12 20 C6.72 14.72 1.44 9.44 -4 4 C-3.01 3.67 -2.02 3.34 -1 3 C-0.67 2.01 -0.34 1.02 0 0 Z " fill="#ECE6E2" transform="translate(190,266)"/>
<path d="M0 0 C2.22935762 0.95543898 4.18497321 2.08429509 6.21875 3.40625 C6.92515625 3.86128906 7.6315625 4.31632813 8.359375 4.78515625 C9.15601563 5.30916016 9.15601563 5.30916016 9.96875 5.84375 C8.97875 6.17375 7.98875 6.50375 6.96875 6.84375 C7.62875 8.16375 8.28875 9.48375 8.96875 10.84375 C7.97875 11.33875 7.97875 11.33875 6.96875 11.84375 C6.081875 11.163125 5.195 10.4825 4.28125 9.78125 C1.22059193 7.58764377 1.22059193 7.58764377 -1.71875 7.96875 C-4.25041233 8.82782951 -4.25041233 8.82782951 -7.03125 10.84375 C-8.35125 9.19375 -9.67125 7.54375 -11.03125 5.84375 C-9.62572701 4.80762729 -8.20633306 3.79030075 -6.78125 2.78125 C-5.99234375 2.21277344 -5.2034375 1.64429688 -4.390625 1.05859375 C-2.03125 -0.15625 -2.03125 -0.15625 0 0 Z " fill="#F5F2EF" transform="translate(250.03125,219.15625)"/>
<path d="M0 0 C0.33 0 0.66 0 1 0 C1.33 1.65 1.66 3.3 2 5 C4.97 5.33 7.94 5.66 11 6 C11 6.66 11 7.32 11 8 C8.03 8 5.06 8 2 8 C2 10.31 2 12.62 2 15 C5.96 15 9.92 15 14 15 C14 16.32 14 17.64 14 19 C9.05 19 4.1 19 -1 19 C-1.02690104 16.20826945 -1.04679053 13.41679652 -1.0625 10.625 C-1.07087891 9.8309375 -1.07925781 9.036875 -1.08789062 8.21875 C-1.11328125 2.2265625 -1.11328125 2.2265625 0 0 Z " fill="#66564E" transform="translate(232,417)"/>
<path d="M0 0 C2.31 0.33 4.62 0.66 7 1 C5.68 1.33 4.36 1.66 3 2 C3 4.64 3 7.28 3 10 C5.64 10 8.28 10 11 10 C11 10.66 11 11.32 11 12 C8.36 12 5.72 12 3 12 C3 14.64 3 17.28 3 20 C6.3 20 9.6 20 13 20 C12.67 20.99 12.34 21.98 12 23 C8.04 23 4.08 23 0 23 C0 15.41 0 7.82 0 0 Z " fill="#534236" transform="translate(166,413)"/>
<path d="M0 0 C2.625 -0.1875 2.625 -0.1875 5 0 C5.66 1.32 6.32 2.64 7 4 C5.68 4.33 4.36 4.66 3 5 C5.64 5.33 8.28 5.66 11 6 C11 6.33 11 6.66 11 7 C8.36 7 5.72 7 3 7 C3 7.99 3 8.98 3 10 C4.65 10.33 6.3 10.66 8 11 C6.125 14.875 6.125 14.875 5 16 C2.5625 16.1875 2.5625 16.1875 0 16 C-2 14 -2 14 -2.265625 11.50390625 C-2.26046875 10.53324219 -2.2553125 9.56257813 -2.25 8.5625 C-2.25515625 7.59441406 -2.2603125 6.62632812 -2.265625 5.62890625 C-2 3 -2 3 0 0 Z " fill="#EFEAE5" transform="translate(301,416)"/>
<path d="M0 0 C0.66 0 1.32 0 2 0 C2 0.66 2 1.32 2 2 C2.99 2.33 3.98 2.66 5 3 C5.1875 6.375 5.1875 6.375 5 10 C4.01 10.66 3.02 11.32 2 12 C2 11.34 2 10.68 2 10 C-1.3 10 -4.6 10 -8 10 C-8 7.36 -8 4.72 -8 2 C-5.36 2 -2.72 2 0 2 C0 1.34 0 0.68 0 0 Z " fill="#73655B" transform="translate(177,423)"/>
<path d="M0 0 C0.99 0.66 1.98 1.32 3 2 C3.64825345 7.94232331 3.64825345 7.94232331 1.8125 10.9375 C-0.66049093 12.38718434 -2.17884512 12.42317323 -5 12 C-6.8125 10.875 -6.8125 10.875 -8 9 C-8.39769128 5.81846974 -8.55198782 3.87155972 -6.8125 1.125 C-4.36830089 -0.3920891 -2.83079592 -0.35384949 0 0 Z " fill="#F1EEEB" transform="translate(273,209)"/>
<path d="M0 0 C1.875 1.0625 1.875 1.0625 3 3 C2.875 6.5625 2.875 6.5625 2 10 C-1 12 -1 12 -3.5625 11.75 C-6 11 -6 11 -8 9 C-8.333728 5.86295684 -8.52849028 3.83445834 -6.8125 1.125 C-4.34492892 -0.40659584 -2.85480169 -0.42822025 0 0 Z " fill="#F5F2EB" transform="translate(231,209)"/>
<path d="M0 0 C3.32445643 6.06224407 4.36108506 13.13938387 4 20 C1.36 20 -1.28 20 -4 20 C-3.34034961 13.13963599 -1.7637236 6.65556077 0 0 Z " fill="#EBE7E3" transform="translate(159,344)"/>
<path d="M0 0 C2.12890625 0.39453125 2.12890625 0.39453125 4.69140625 2.20703125 C6.12890625 4.39453125 6.12890625 4.39453125 6.12890625 7.39453125 C4.80890625 7.39453125 3.48890625 7.39453125 2.12890625 7.39453125 C1.46890625 6.40453125 0.80890625 5.41453125 0.12890625 4.39453125 C-1.52109375 4.06453125 -3.17109375 3.73453125 -4.87109375 3.39453125 C-5.53109375 7.68453125 -6.19109375 11.97453125 -6.87109375 16.39453125 C-7.20109375 16.39453125 -7.53109375 16.39453125 -7.87109375 16.39453125 C-8.20109375 13.75453125 -8.53109375 11.11453125 -8.87109375 8.39453125 C-9.20109375 11.69453125 -9.53109375 14.99453125 -9.87109375 18.39453125 C-10.20109375 18.39453125 -10.53109375 18.39453125 -10.87109375 18.39453125 C-10.97933148 16.14559171 -11.0567902 13.8951555 -11.12109375 11.64453125 C-11.1675 10.3915625 -11.21390625 9.13859375 -11.26171875 7.84765625 C-10.87109375 4.39453125 -10.87109375 4.39453125 -9.13671875 1.97265625 C-5.94046377 -0.25370067 -3.78799296 -0.16849392 0 0 Z " fill="#695D57" transform="translate(305.87109375,412.60546875)"/>
<path d="M0 0 C0.33 0 0.66 0 1 0 C1 7.26 1 14.52 1 22 C2.32 21.67 3.64 21.34 5 21 C4.67 20.67 4.34 20.34 4 20 C3.85884839 17.32941149 3.95752893 14.67567762 4 12 C7.3 12 10.6 12 14 12 C14 12.33 14 12.66 14 13 C11.03 13 8.06 13 5 13 C5 14.98 5 16.96 5 19 C8.63 19 12.26 19 16 19 C16 20.32 16 21.64 16 23 C10.72 23 5.44 23 0 23 C0 15.41 0 7.82 0 0 Z " fill="#84756C" transform="translate(188,413)"/>
<path d="M0 0 C4.95 0 9.9 0 15 0 C15 0.99 15 1.98 15 3 C11.37 3 7.74 3 4 3 C4 4.98 4 6.96 4 9 C3.01 8.67 2.02 8.34 1 8 C1.350625 9.0725 1.70125 10.145 2.0625 11.25 C3.23076923 15.92307692 3.23076923 15.92307692 2 19 C0 17 0 17 -0.1953125 13.0859375 C-0.18200376 11.51550649 -0.15813602 9.94513779 -0.125 8.375 C-0.11597656 7.57320313 -0.10695313 6.77140625 -0.09765625 5.9453125 C-0.07406223 3.96341477 -0.03819065 1.98167019 0 0 Z " fill="#5F4F48" transform="translate(319,413)"/>
<path d="M0 0 C0.37059036 0.48608231 0.74118073 0.97216461 1.1230011 1.47297668 C3.77021899 3.62660791 5.64413239 3.39801351 9.03198242 3.43237305 C10.89357246 3.46206429 10.89357246 3.46206429 12.79277039 3.49235535 C14.14700163 3.49912509 15.50123453 3.50557196 16.85546875 3.51171875 C18.24125261 3.52856405 19.62702118 3.54671409 21.01277161 3.56611633 C24.65741192 3.61363938 28.30199023 3.64343344 31.94683838 3.66955566 C35.66715746 3.69934983 39.38726284 3.745884 43.10742188 3.79101562 C50.40484194 3.87707478 57.7022775 3.94440803 65 4 C65 4.33 65 4.66 65 5 C43.88 5 22.76 5 1 5 C0.67 3.35 0.34 1.7 0 0 Z " fill="#857771" transform="translate(123,254)"/>
<path d="M0 0 C0.66 1.32 1.32 2.64 2 4 C1.01 4 0.02 4 -1 4 C-0.67 19.18 -0.34 34.36 0 50 C2.31 50 4.62 50 7 50 C4.23776722 52.76223278 1.79293383 52.57856291 -2 53 C-2.0506353 45.93419448 -2.0857062 38.8684356 -2.10986328 31.80249023 C-2.11993201 29.39785005 -2.13358785 26.99322214 -2.15087891 24.58862305 C-2.17508874 21.13587416 -2.18647432 17.6832869 -2.1953125 14.23046875 C-2.20563507 13.15226364 -2.21595764 12.07405853 -2.22659302 10.96318054 C-2.22674408 9.96236954 -2.22689514 8.96155853 -2.22705078 7.93041992 C-2.231492 7.04883713 -2.23593323 6.16725433 -2.24050903 5.25895691 C-2 3 -2 3 0 0 Z " fill="#615148" transform="translate(146,162)"/>
<path d="M0 0 C19.47 0 38.94 0 59 0 C59 0.66 59 1.32 59 2 C58.34 2 57.68 2 57 2 C56.67 2.99 56.34 3.98 56 5 C55.505 3.02 55.505 3.02 55 1 C36.85 1 18.7 1 0 1 C0 0.67 0 0.34 0 0 Z " fill="#685A52" transform="translate(253,263)"/>
<path d="M0 0 C2.475 0.495 2.475 0.495 5 1 C8.62870159 12.52164009 8.62870159 12.52164009 7 18 C2.31552842 13.15399492 0 6.71999994 0 0 Z " fill="#60524E" transform="translate(207,412)"/>
<path d="M0 0 C0.33 0 0.66 0 1 0 C1 17.16 1 34.32 1 52 C-1.97 51.34 -4.94 50.68 -8 50 C-4 49 -4 49 -1 49 C-0.67 32.83 -0.34 16.66 0 0 Z " fill="#5C4D41" transform="translate(354,163)"/>
<path d="M0 0 C1.32 0 2.64 0 4 0 C4.508783 1.55966218 5.00663469 3.12289241 5.5 4.6875 C5.7784375 5.55761719 6.056875 6.42773438 6.34375 7.32421875 C6.99850805 9.99391677 7.11831495 12.26396684 7 15 C3.67098753 12.78065836 3.24976756 11.65316671 2 8 C1.01 8 0.02 8 -1 8 C-1.125 2.25 -1.125 2.25 0 0 Z " fill="#514235" transform="translate(280,412)"/>
<path d="M0 0 C2.5625 0.1875 2.5625 0.1875 4.5625 2.1875 C4.00694444 6.74305556 4.00694444 6.74305556 2.5625 8.1875 C0.125 8.375 0.125 8.375 -2.4375 8.1875 C-3.0975 7.5275 -3.7575 6.8675 -4.4375 6.1875 C-3.71780303 0.28598485 -3.71780303 0.28598485 0 0 Z " fill="#5E4D4A" transform="translate(355.4375,419.8125)"/>
<path d="M0 0 C2.5625 0.1875 2.5625 0.1875 4.5625 2.1875 C4.00694444 6.74305556 4.00694444 6.74305556 2.5625 8.1875 C0.125 8.375 0.125 8.375 -2.4375 8.1875 C-3.0975 7.5275 -3.7575 6.8675 -4.4375 6.1875 C-3.71780303 0.28598485 -3.71780303 0.28598485 0 0 Z " fill="#604F49" transform="translate(141.4375,419.8125)"/>
<path d="M0 0 C0.33 0.99 0.66 1.98 1 3 C1.99 2.67 2.98 2.34 4 2 C7 7.625 7 7.625 7 11 C4.69 11 2.38 11 0 11 C0 10.01 0 9.02 0 8 C-0.66 8 -1.32 8 -2 8 C-1.34 5.36 -0.68 2.72 0 0 Z " fill="#6A5D54" transform="translate(278,417)"/>
<path d="M0 0 C2.64 0 5.28 0 8 0 C8.625 2.375 8.625 2.375 9 5 C7 7 7 7 3.375 7.125 C2.26125 7.08375 1.1475 7.0425 0 7 C0 4.69 0 2.38 0 0 Z " fill="#EFEBE8" transform="translate(255,416)"/>
<path d="M0 0 C0.33 0 0.66 0 1 0 C1.33 1.65 1.66 3.3 2 5 C4.97 5.33 7.94 5.66 11 6 C11 6.66 11 7.32 11 8 C8.03 8 5.06 8 2 8 C2 10.31 2 12.62 2 15 C1.34 15 0.68 15 0 15 C-0.33 15.66 -0.66 16.32 -1 17 C-1.02691685 14.54159395 -1.04679802 12.08348118 -1.0625 9.625 C-1.07087891 8.92632812 -1.07925781 8.22765625 -1.08789062 7.5078125 C-1.11328125 2.2265625 -1.11328125 2.2265625 0 0 Z " fill="#504238" transform="translate(232,417)"/>
<path d="M0 0 C4.29 0.33 8.58 0.66 13 1 C13 2.32 13 3.64 13 5 C9.37 5 5.74 5 2 5 C1.67 5.66 1.34 6.32 1 7 C0.67 6.67 0.34 6.34 0 6 C0 4.02 0 2.04 0 0 Z " fill="#6B5D55" transform="translate(320,421)"/>
<path d="M0 0 C0.66 0 1.32 0 2 0 C2.33 1.98 2.66 3.96 3 6 C2.34 6 1.68 6 1 6 C1 15.9 1 25.8 1 36 C-2.3 36 -5.6 36 -9 36 C-9 35.67 -9 35.34 -9 35 C-6.03 35 -3.06 35 0 35 C0 23.45 0 11.9 0 0 Z " fill="#C0B6AF" transform="translate(369,350)"/>
<path d="M0 0 C3.3 0 6.6 0 10 0 C10 0.66 10 1.32 10 2 C7.69 2 5.38 2 3 2 C3 4.64 3 7.28 3 10 C4.98 10 6.96 10 9 10 C9 10.33 9 10.66 9 11 C6.03 11 3.06 11 0 11 C0 7.37 0 3.74 0 0 Z " fill="#544338" transform="translate(252,413)"/>
<path d="M0 0 C2.64 0 5.28 0 8 0 C8.38218767 1.65614657 8.71395102 3.32457024 9 5 C8 6 8 6 6.15234375 6.09765625 C4.1015625 6.06510417 2.05078125 6.03255208 0 6 C0 4.02 0 2.04 0 0 Z " fill="#EBE6E3" transform="translate(169,416)"/>
<path d="M0 0 C0.66 0.33 1.32 0.66 2 1 C1.01 2.485 1.01 2.485 0 4 C1.65 4.33 3.3 4.66 5 5 C2.37352812 6.75098126 -0.28775382 8.38731308 -3 10 C-4.32 8.35 -5.64 6.7 -7 5 C-4.69 3.35 -2.38 1.7 0 0 Z " fill="#EBE8E4" transform="translate(246,220)"/>
<path d="M0 0 C2.31 0 4.62 0 7 0 C7.38218767 1.65614657 7.71395102 3.32457024 8 5 C7 6 7 6 3.4375 6.0625 C2.303125 6.041875 1.16875 6.02125 0 6 C0 4.02 0 2.04 0 0 Z " fill="#FAF7F6" transform="translate(170,426)"/>
<path d="M0 0 C8.11722488 -0.62440191 8.11722488 -0.62440191 11.5625 1.8125 C13 4 13 4 13 7 C11.68 7 10.36 7 9 7 C8.34 6.01 7.68 5.02 7 4 C6.01 3.67 5.02 3.34 4 3 C4 2.34 4 1.68 4 1 C2.35 1.33 0.7 1.66 -1 2 C-0.67 1.34 -0.34 0.68 0 0 Z " fill="#645D57" transform="translate(299,413)"/>
<path d="M0 0 C11.55 0 23.1 0 35 0 C35 0.33 35 0.66 35 1 C19.16 1.495 19.16 1.495 3 2 C2.67 2.66 2.34 3.32 2 4 C1.34 2.68 0.68 1.36 0 0 Z " fill="#665C56" transform="translate(145,263)"/>
<path d="M0 0 C1.32 0 2.64 0 4 0 C3.01 4.29 2.02 8.58 1 13 C0.01 12.67 -0.98 12.34 -2 12 C-1 3.42857143 -1 3.42857143 0 0 Z " fill="#624F44" transform="translate(221,413)"/>
<path d="M0 0 C11.22 0 22.44 0 34 0 C33.67 0.99 33.34 1.98 33 3 C32.34 2.67 31.68 2.34 31 2 C28.59161322 1.91360131 26.21266119 1.88432236 23.8046875 1.90234375 C23.09724396 1.9037587 22.38980042 1.90517365 21.66091919 1.90663147 C19.39890331 1.912234 17.13698602 1.92478682 14.875 1.9375 C13.34244935 1.94251468 11.80989714 1.94707764 10.27734375 1.95117188 C6.51819112 1.96220423 2.75911228 1.97947048 -1 2 C-0.67 1.34 -0.34 0.68 0 0 Z " fill="#6B5E54" transform="translate(320,263)"/>
<path d="M0 0 C1.11328125 2.203125 1.11328125 2.203125 1.11328125 5.203125 C-0.53671875 4.873125 -2.18671875 4.543125 -3.88671875 4.203125 C-4.21671875 3.213125 -4.54671875 2.223125 -4.88671875 1.203125 C-7.85671875 0.873125 -10.82671875 0.543125 -13.88671875 0.203125 C-13.88671875 -0.126875 -13.88671875 -0.456875 -13.88671875 -0.796875 C-11.95273067 -1.07273066 -10.01417966 -1.31674915 -8.07421875 -1.546875 C-6.99527344 -1.68609375 -5.91632813 -1.8253125 -4.8046875 -1.96875 C-1.88671875 -1.796875 -1.88671875 -1.796875 0 0 Z " fill="#71655D" transform="translate(290.88671875,430.796875)"/>
<path d="M0 0 C0.33 0 0.66 0 1 0 C1.04898437 0.60328125 1.09796875 1.2065625 1.1484375 1.828125 C1.22320312 2.62734375 1.29796875 3.4265625 1.375 4.25 C1.44460938 5.03890625 1.51421875 5.8278125 1.5859375 6.640625 C2.01507113 9.085877 2.78600638 10.84836903 4 13 C2.68 13 1.36 13 0 13 C-1 12 -1 12 -1.1328125 9.53125 C-1.13023437 8.5309375 -1.12765625 7.530625 -1.125 6.5 C-1.12757813 5.4996875 -1.13015625 4.499375 -1.1328125 3.46875 C-1 1 -1 1 0 0 Z " fill="#55423B" transform="translate(297,420)"/>
<path d="M0 0 C2.86724686 0.57344937 3.8614515 0.8614515 6 3 C6.125 6.625 6.125 6.625 6 10 C5.67 10 5.34 10 5 10 C5 8.35 5 6.7 5 5 C-0.94 4.01 -0.94 4.01 -7 3 C-7 2.67 -7 2.34 -7 2 C-4.69 2 -2.38 2 0 2 C0 1.34 0 0.68 0 0 Z " fill="#74665F" transform="translate(262,413)"/>
<path d="M0 0 C0.66 0.33 1.32 0.66 2 1 C0.5 3.5625 0.5 3.5625 -2 6 C-4.87728254 6.15374792 -7.14553142 5.61846819 -10 5 C-10 4.01 -10 3.02 -10 2 C-9.04287109 1.90912109 -9.04287109 1.90912109 -8.06640625 1.81640625 C-6.82697266 1.69072266 -6.82697266 1.69072266 -5.5625 1.5625 C-4.73878906 1.48128906 -3.91507812 1.40007812 -3.06640625 1.31640625 C-1.01337975 1.21069185 -1.01337975 1.21069185 0 0 Z " fill="#E1D9D3" transform="translate(377,249)"/>
<path d="M0 0 C1.4540625 0.0309375 1.4540625 0.0309375 2.9375 0.0625 C2.9375 0.7225 2.9375 1.3825 2.9375 2.0625 C3.5975 2.0625 4.2575 2.0625 4.9375 2.0625 C4.6075 3.0525 4.2775 4.0425 3.9375 5.0625 C1.6275 4.7325 -0.6825 4.4025 -3.0625 4.0625 C-3.3925 3.0725 -3.7225 2.0825 -4.0625 1.0625 C-3.0625 0.0625 -3.0625 0.0625 0 0 Z " fill="#F3EEEA" transform="translate(267.0625,183.9375)"/>
<path d="M0 0 C0.66 0 1.32 0 2 0 C2 2.31 2 4.62 2 7 C1.34 7 0.68 7 0 7 C0.350625 8.0725 0.70125 9.145 1.0625 10.25 C2.23076923 14.92307692 2.23076923 14.92307692 1 18 C-1 16 -1 16 -1.23046875 13.828125 C-1.15200005 9.12000279 -0.97451578 4.62894997 0 0 Z " fill="#504235" transform="translate(320,414)"/>
<path d="M0 0 C1.5 1.1875 1.5 1.1875 3 3 C3.1875 5.6875 3.1875 5.6875 3 8 C1.35 8 -0.3 8 -2 8 C-1.125 2.25 -1.125 2.25 0 0 Z " fill="#E6DED6" transform="translate(281,419)"/>
<path d="M0 0 C1.4606285 2.64738916 2 3.89448334 2 7 C0.68 7 -0.64 7 -2 7 C-2.66 5.02 -3.32 3.04 -4 1 C-2 0 -2 0 0 0 Z " fill="#5E534A" transform="translate(266,429)"/>
<path d="M0 0 C2.64 0 5.28 0 8 0 C8 0.66 8 1.32 8 2 C8.99 2.33 9.98 2.66 11 3 C8.47946405 4.26026798 7.1457902 3.91874445 4.375 3.5625 C3.14910156 3.40974609 3.14910156 3.40974609 1.8984375 3.25390625 C1.27195312 3.17011719 0.64546875 3.08632812 0 3 C0 2.01 0 1.02 0 0 Z " fill="#E3D9D0" transform="translate(367,227)"/>
<path d="M0 0 C0.66 0.33 1.32 0.66 2 1 C1.66226562 1.47050781 1.32453125 1.94101563 0.9765625 2.42578125 C0.53054688 3.04839844 0.08453125 3.67101562 -0.375 4.3125 C-0.81585938 4.92738281 -1.25671875 5.54226562 -1.7109375 6.17578125 C-2.83410907 7.7652392 -3.92041447 9.38062171 -5 11 C-5.99 11 -6.98 11 -8 11 C-6.63629701 8.00779732 -5.05091917 5.70973471 -2.875 3.25 C-2.33617187 2.63640625 -1.79734375 2.0228125 -1.2421875 1.390625 C-0.62730469 0.70226562 -0.62730469 0.70226562 0 0 Z " fill="#63574E" transform="translate(292,175)"/>
<path d="M0 0 C0.66 0 1.32 0 2 0 C2.34906845 3.75248584 2.32941626 5.5115552 0.1875 8.6875 C-3.4 12.48 -3.4 12.48 -5 14 C-5.66 13.67 -6.32 13.34 -7 13 C-6.4946875 12.39671875 -5.989375 11.7934375 -5.46875 11.171875 C-4.49421875 9.97304687 -4.49421875 9.97304687 -3.5 8.75 C-2.8503125 7.96109375 -2.200625 7.1721875 -1.53125 6.359375 C0.36293496 3.90957006 0.36293496 3.90957006 0 0 Z " fill="#D7CFCC" transform="translate(296,155)"/>
<path d="M0 0 C3.96 0 7.92 0 12 0 C11.67 0.99 11.34 1.98 11 3 C9.54257537 3.08096803 8.08387193 3.13917774 6.625 3.1875 C5.81289062 3.22230469 5.00078125 3.25710938 4.1640625 3.29296875 C3.44992188 3.19628906 2.73578125 3.09960938 2 3 C1.34 2.01 0.68 1.02 0 0 Z " fill="#604F43" transform="translate(167,413)"/>
<path d="M0 0 C0.66 0.33 1.32 0.66 2 1 C1.34 2.65 0.68 4.3 0 6 C0.66 5.67 1.32 5.34 2 5 C1.67 6.65 1.34 8.3 1 10 C-0.32 10 -1.64 10 -3 10 C-2.25 3.375 -2.25 3.375 0 0 Z " fill="#6D615A" transform="translate(275,426)"/>
<path d="M0 0 C2.625 -0.1875 2.625 -0.1875 5 0 C5.33 0.66 5.66 1.32 6 2 C4.02 2.66 2.04 3.32 0 4 C-0.33 7.3 -0.66 10.6 -1 14 C-1.33 14 -1.66 14 -2 14 C-2.05410687 12.22950311 -2.09284119 10.45853151 -2.125 8.6875 C-2.14820313 7.70136719 -2.17140625 6.71523438 -2.1953125 5.69921875 C-2 3 -2 3 0 0 Z " fill="#CCC2BC" transform="translate(301,416)"/>
<path d="M0 0 C2.475 0.495 2.475 0.495 5 1 C4.34099246 4.07536854 3.46132217 6.07735566 2 9 C1.34 6.03 0.68 3.06 0 0 Z " fill="#786962" transform="translate(207,412)"/>
<path d="M0 0 C1.65 1.65 3.3 3.3 5 5 C4.67 5.99 4.34 6.98 4 8 C3.01 8 2.02 8 1 8 C0.67 5.36 0.34 2.72 0 0 Z " fill="#60514C" transform="translate(213,182)"/>
<path d="M0 0 C0.33 0.66 0.66 1.32 1 2 C-3 8.57142857 -3 8.57142857 -7 10 C-5.33248852 6.05860922 -2.77289351 3.2107188 0 0 Z " fill="#706058" transform="translate(224,129)"/>
<path d="M0 0 C2.97 0 5.94 0 9 0 C9 0.99 9 1.98 9 3 C7.35 3 5.7 3 4 3 C4 2.34 4 1.68 4 1 C2.35 1.33 0.7 1.66 -1 2 C-0.67 1.34 -0.34 0.68 0 0 Z " fill="#5A4C42" transform="translate(299,413)"/>
<path d="M0 0 C1.32 0 2.64 0 4 0 C4.66 2.64 5.32 5.28 6 8 C5.34 7.67 4.68 7.34 4 7 C4 6.01 4 5.02 4 4 C2.68 4 1.36 4 0 4 C-0.33 3.34 -0.66 2.68 -1 2 C-0.67 1.34 -0.34 0.68 0 0 Z " fill="#796D64" transform="translate(280,412)"/>
<path d="M0 0 C0.33 0 0.66 0 1 0 C1 2.31 1 4.62 1 7 C-3.455 6.01 -3.455 6.01 -8 5 C-4 4 -4 4 -1 4 C-0.67 2.68 -0.34 1.36 0 0 Z " fill="#685954" transform="translate(354,208)"/>
<path d="M0 0 C0.66 0.99 1.32 1.98 2 3 C1.01 4.485 1.01 4.485 0 6 C0 5.34 0 4.68 0 4 C-3.3 4 -6.6 4 -10 4 C-10 3.67 -10 3.34 -10 3 C-6.7 2.67 -3.4 2.34 0 2 C0 1.34 0 0.68 0 0 Z " fill="#685950" transform="translate(179,419)"/>
<path d="M0 0 C2.97 0.495 2.97 0.495 6 1 C3.94766315 3.2477975 2.99332739 4.0022242 0 5 C-0.99 4.34 -1.98 3.68 -3 3 C-2.01 2.67 -1.02 2.34 0 2 C0 1.34 0 0.68 0 0 Z " fill="#E1D9D2" transform="translate(261,182)"/>
<path d="M0 0 C1.9375 0.3125 1.9375 0.3125 4 1 C4.33 1.99 4.66 2.98 5 4 C3.02 4 1.04 4 -1 4 C-1.33 3.34 -1.66 2.68 -2 2 C-1.34 2 -0.68 2 0 2 C0 1.34 0 0.68 0 0 Z " fill="#FDFBF7" transform="translate(257,181)"/>
<path d="M0 0 C0.66 0.66 1.32 1.32 2 2 C1.625 4.125 1.625 4.125 1 6 C0.01 6 -0.98 6 -2 6 C-1.125 1.125 -1.125 1.125 0 0 Z " fill="#57493D" transform="translate(281,414)"/>
<path d="M0 0 C2.83374881 3.20336822 3.5205537 5.78087253 4 10 C3.34 9.34 2.68 8.68 2 8 C2 7.01 2 6.02 2 5 C1.01 4.67 0.02 4.34 -1 4 C-0.67 2.68 -0.34 1.36 0 0 Z " fill="#72635C" transform="translate(369,325)"/>
<path d="M0 0 C1.2065625 0.0309375 1.2065625 0.0309375 2.4375 0.0625 C1.1175 0.3925 -0.2025 0.7225 -1.5625 1.0625 C-1.5625 1.7225 -1.5625 2.3825 -1.5625 3.0625 C0.0875 3.0625 1.7375 3.0625 3.4375 3.0625 C3.4375 3.3925 3.4375 3.7225 3.4375 4.0625 C1.1275 4.0625 -1.1825 4.0625 -3.5625 4.0625 C-3.5625 0.08689024 -3.5625 0.08689024 0 0 Z " fill="#6E6157" transform="translate(303.5625,431.9375)"/>
<path d="M0 0 C1.32 0 2.64 0 4 0 C3.67 1.65 3.34 3.3 3 5 C2.01 5 1.02 5 0 5 C0 3.35 0 1.7 0 0 Z " fill="#56453A" transform="translate(221,413)"/>
</svg>
